<?xml version="1.0" encoding="UTF-8"?>
<svg width="620.5" height="938" version="1.1" viewBox="0 0 620.5 938" xmlns="http://www.w3.org/2000/svg">
 <clipPath id="b">
  <path d="m375.05 0-65 61.7v876.3l65-61.7z"/>
 </clipPath>
 <clipPath id="a">
  <path d="m250.54 123.66-65 61.7v87.6l65-61.7zm334.3 366.9c48.5-48.1 48.9-126.7 0.8-175.2s-126.7-48.9-175.2-0.8c0 0-9.3778 10.188-159.9 159.5v-175.2l-65 61.8v175.1l-148.4 148.7c-50.8 50.3-48.8 134 6.1 181.7 45.3 39.4 113.6 40.2 159.8 1.9 29.8-24.7 47.4-59.8 47.5-95v2.6-214.1s2.4438-2.4264 202.5-202c24.7-24.4 65.5-24.9 89.4 0.3 23.2 24.4 22.8 63-1.2 86.8l-69.7 69c-48.3 47.8-48.9 125.8-1.6 174.4l43.6 44.8 43.6-44.3-42.8-43.8c-23.7-24.3-23.4-63.2 0.8-87.2zm-399.3 282.9c-0.2 15.6-5.5 31.2-17.5 43.1-20.4 20.2-51.2 23.3-74.8 9.5-5.3-3.1-10.2-7-14.5-11.8-22.6-24.7-20.6-63.2 3.2-86.7l103.6-104.3z"/>
 </clipPath>
 <clipPath>
  <path d="m250.05 123.3-65 61.7v87.6l65-61.7zm334.3 366.9c48.5-48.1 48.9-126.7 0.8-175.2s-126.7-48.9-175.2-0.8c0 0-9.3778 10.188-159.9 159.5v-175.2l-65 61.8v175.1l-148.4 148.7c-50.8 50.3-48.8 134 6.1 181.7 45.3 39.4 113.6 40.2 159.8 1.9 29.8-24.7 47.4-59.8 47.5-95v2.6-214.1s-25.931 24.417 202.5-202c24.7-24.4 65.5-24.9 89.4 0.3 23.2 24.4 22.8 63-1.2 86.8l-69.7 69c-48.3 47.8-48.9 125.8-1.6 174.4l43.6 44.8 43.6-44.3-42.8-43.8c-23.7-24.3-23.4-63.2 0.8-87.2zm-399.3 282.9c-0.2 15.6-5.5 31.2-17.5 43.1-20.4 20.2-51.2 23.3-74.8 9.5-5.3-3.1-10.2-7-14.5-11.8-22.6-24.7-20.6-63.2 3.2-86.7l103.6-104.3z"/>
 </clipPath>
 <path transform="translate(-.4691 -1.5026)" d="m217.97 124.8-0.11555 649.4v2e-3c-3e-4 0.015 3.1e-4 0.0301 0 0.0451-0.454 22.205-9.954 43.867-25.642 61.594l-2e-3 2e-3c-3.1065 3.5098-6.7298 6.7305-10.555 9.6504-28.554 22.521-67.36 25.94-98.932 10.355-8.14-4.02-15.783-9.1477-22.623-15.686-28.159-26.75-33.998-67.379-19.309-99.271l-0.04102 0.14063c7.1047-15.926 8.6769-20.096 17.018-30.141 8.54-11.532 18.085-22.656 23.125-27.646l331.7-328.7c4.132-4.082 13.256-12.004 22.684-19.254 4.714-3.6249 9.5018-7.0779 13.779-9.7949 4.2776-2.717 8.0226-4.7011 10.768-5.3809 32.996-17.404 76.232-12.069 104.29 16.693 29.759 30.461 33.911 76.585 12.691 110.98-1.612 3.901-6.4657 10.389-11.701 16.752-5.2351 6.3622-10.834 12.539-13.906 15.611h-2e-3l-58 57.5c-31.53 31.234-35.505 79.968-11.838 115.27l0.0176 0.0254 0.0137 0.0254c1.2953 2.5424 4.8454 7.1659 8.5996 11.656 3.7542 4.49 7.7294 8.8887 9.9121 11.121l35.301 36.201" clip-path="url(#a)" fill="none" stroke="black" stroke-width="64"/>
 <path transform="translate(-.11555)" d="m342.55 0v938z" clip-path="url(#b)" fill="none" stroke="black" stroke-width="64"/>
</svg>
