<?xml version="1.0" encoding="UTF-8" standalone="no"?>
<svg
   xmlns:dc="http://purl.org/dc/elements/1.1/"
   xmlns:cc="http://creativecommons.org/ns#"
   xmlns:rdf="http://www.w3.org/1999/02/22-rdf-syntax-ns#"
   xmlns:svg="http://www.w3.org/2000/svg"
   xmlns="http://www.w3.org/2000/svg"
   xmlns:sodipodi="http://sodipodi.sourceforge.net/DTD/sodipodi-0.dtd"
   xmlns:inkscape="http://www.inkscape.org/namespaces/inkscape"
   inkscape:version="1.0 (4035a4fb49, 2020-05-01)"
   sodipodi:docname="logo.svg"
   id="svg849"
   viewBox="0 0 1000 1000"
   version="1.1"
   height="1000"
   width="1000">
  <metadata
     id="metadata855">
    <rdf:RDF>
      <cc:Work
         rdf:about="">
        <dc:format>image/svg+xml</dc:format>
        <dc:type
           rdf:resource="http://purl.org/dc/dcmitype/StillImage" />
      </cc:Work>
    </rdf:RDF>
  </metadata>
  <defs
     id="defs853" />
  <sodipodi:namedview
     inkscape:current-layer="svg849"
     inkscape:window-maximized="1"
     inkscape:window-y="-8"
     inkscape:window-x="1974"
     inkscape:cy="442.98014"
     inkscape:cx="402.44359"
     inkscape:zoom="0.64102339"
     showgrid="false"
     id="namedview851"
     inkscape:window-height="1057"
     inkscape:window-width="1858"
     inkscape:pageshadow="2"
     inkscape:pageopacity="0"
     guidetolerance="10"
     gridtolerance="10"
     objecttolerance="10"
     borderopacity="1"
     bordercolor="#666666"
     pagecolor="#ffffff" />
  <rect
     y="184.89999"
     x="184.89999"
     height="630.19983"
     width="630.20007"
     id="rect863"
     style="fill:#ffffff;fill-opacity:1;stroke:#ffffff;stroke-width:369.8;stroke-linecap:round;stroke-linejoin:round;stroke-miterlimit:6.9;stroke-dasharray:none;stroke-opacity:1;paint-order:stroke fill markers" />
  <g
     transform="translate(23.659048,-8.362761)"
     id="g861">
    <path
       d="m 415.9006,162.66012 -65,61.7 v 87.6 l 65,-61.7 z m 334.3,366.9 c 48.5,-48.1 48.9,-126.7 0.8,-175.2 -48.1,-48.5 -126.7,-48.9 -175.2,-0.8 0,0 -9.3778,10.188 -159.9,159.5 v -175.2 l -65,61.8 v 175.1 l -148.4,148.7 c -50.8,50.3 -48.8,134 6.1,181.7 45.3,39.4 113.6,40.2 159.8,1.9 29.8,-24.7 47.4,-59.8 47.5,-95 v 2.6 -214.1 c 0,0 2.4438,-2.4264 202.5,-202 24.7,-24.4 65.5,-24.9 89.4,0.3 23.2,24.4 22.8,63 -1.2,86.8 l -69.7,69 c -48.3,47.8 -48.9,125.8 -1.6,174.4 l 43.6,44.8 43.6,-44.3 -42.8,-43.8 c -23.7,-24.3 -23.4,-63.2 0.8,-87.2 z m -399.3,282.9 c -0.2,15.6 -5.5,31.2 -17.5,43.1 -20.4,20.2 -51.2,23.3 -74.8,9.5 -5.3,-3.1 -10.2,-7 -14.5,-11.8 -22.6,-24.7 -20.6,-63.2 3.2,-86.7 l 103.6,-104.3 z"
       stroke="none"
       stroke-miterlimit="0"
       fill="#000000"
       id="path845" />
    <path
       d="m 540.9006,39.362762 -65,61.699998 v 876.3 l 65,-61.7 z"
       stroke="none"
       stroke-miterlimit="0"
       fill="#000000"
       id="path847" />
  </g>
</svg>
